<mxfile host="app.diagrams.net" modified="2023-06-17T13:50:03.671Z" agent="Mozilla/5.0 (Windows NT 10.0; Win64; x64) AppleWebKit/537.36 (KHTML, like Gecko) Chrome/113.0.0.0 Safari/537.36 OPR/99.0.0.0" etag="i6ccxtTzU8r7PfnlO1HQ" version="21.4.1" type="github">
  <diagram id="C5RBs43oDa-KdzZeNtuy" name="Page-1">
    <mxGraphModel dx="796" dy="1675" grid="1" gridSize="10" guides="1" tooltips="1" connect="1" arrows="1" fold="1" page="1" pageScale="1" pageWidth="827" pageHeight="1169" math="0" shadow="0">
      <root>
        <mxCell id="WIyWlLk6GJQsqaUBKTNV-0" />
        <mxCell id="WIyWlLk6GJQsqaUBKTNV-1" parent="WIyWlLk6GJQsqaUBKTNV-0" />
        <mxCell id="ac1qyCbTUyct5T3TFnsW-6" value="&lt;p style=&quot;margin:0px;margin-top:4px;text-align:center;&quot;&gt;&lt;b&gt;Class&lt;/b&gt;&lt;/p&gt;&amp;nbsp;+ Creates an instance of ChessBoard&lt;hr size=&quot;1&quot;&gt;&lt;div style=&quot;height:2px;&quot;&gt;&lt;/div&gt;&lt;hr size=&quot;1&quot;&gt;&lt;div style=&quot;height:2px;&quot;&gt;&lt;/div&gt;" style="verticalAlign=top;align=left;overflow=fill;fontSize=12;fontFamily=Helvetica;html=1;whiteSpace=wrap;" vertex="1" parent="WIyWlLk6GJQsqaUBKTNV-1">
          <mxGeometry x="360" y="-210" width="140" height="150" as="geometry" />
        </mxCell>
        <mxCell id="ac1qyCbTUyct5T3TFnsW-7" value="&lt;h3 style=&quot;text-align: center;&quot;&gt;ChessBoard&lt;/h3&gt;&lt;hr&gt;+ &lt;font color=&quot;#ff3333&quot;&gt;private &lt;/font&gt;Piece[][] chessBoard&lt;br&gt;&lt;hr&gt;+ &lt;font color=&quot;#00ff00&quot;&gt;public &lt;/font&gt;Piece[][] getChessBoard()&lt;br&gt;&lt;hr&gt;+ &lt;font color=&quot;#ff0000&quot;&gt;private &lt;/font&gt;Piece[][] createChessBoard()&lt;br&gt;&lt;hr&gt;" style="verticalAlign=middle;align=left;overflow=fill;html=1;whiteSpace=wrap;horizontal=1;labelPosition=center;verticalLabelPosition=middle;strokeWidth=4;strokeColor=#000000;rounded=0;shadow=0;gradientColor=none;fillColor=default;" vertex="1" parent="WIyWlLk6GJQsqaUBKTNV-1">
          <mxGeometry x="10" y="-40" width="280" height="140" as="geometry" />
        </mxCell>
        <mxCell id="ac1qyCbTUyct5T3TFnsW-17" value="" style="edgeStyle=none;orthogonalLoop=1;jettySize=auto;html=1;rounded=0;entryX=0.881;entryY=0.007;entryDx=0;entryDy=0;entryPerimeter=0;exitX=0;exitY=0.5;exitDx=0;exitDy=0;" edge="1" parent="WIyWlLk6GJQsqaUBKTNV-1" source="ac1qyCbTUyct5T3TFnsW-6" target="ac1qyCbTUyct5T3TFnsW-7">
          <mxGeometry width="80" relative="1" as="geometry">
            <mxPoint x="370" y="-130" as="sourcePoint" />
            <mxPoint x="290" y="-135.28857142857154" as="targetPoint" />
            <Array as="points" />
          </mxGeometry>
        </mxCell>
      </root>
    </mxGraphModel>
  </diagram>
</mxfile>
